<svg xmlns="http://www.w3.org/2000/svg" width="48" height="48" fill="none" viewBox="0 0 48 48">
    <path fill="url(#a)" d="M38.698 32.48a.962.962 0 0 0-.231-.373l-7.735-7.734L40.905 14.2c.68-.68.176-1.175 0-1.352l-5.82-5.819a.955.955 0 0 0-1.352 0L23.56 17.202l-9.148-9.147c-1.732-1.731-4.604-1.738-6.343 0a4.491 4.491 0 0 0 0 6.35l9.141 9.146L7.03 33.73a.955.955 0 0 0 0 1.351l5.814 5.82c.176.176.679.678 1.35 0l10.188-10.18 7.735 7.735c.102.102.231.183.374.23l7.497 2.506c.408.136.727.02.978-.23a.952.952 0 0 0 .231-.978l-2.5-7.504zM25.502 17.97L27.533 20a.955.955 0 0 0 1.351 0c.34-.34.374-.978 0-1.352l-2.03-2.03 1.61-1.61.882.884a.955.955 0 0 0 1.352 0c.353-.354.42-.93 0-1.352l-.883-.882 1.61-1.61 1.996 1.996a.955.955 0 0 0 1.352 0 .949.949 0 0 0 0-1.35l-1.997-2.004 1.63-1.63 4.468 4.462-9.494 9.5-4.468-4.469.59-.584zM9.421 13.052a2.574 2.574 0 0 1 0-3.64c.957-.957 2.635-.998 3.64 0l1.052 1.053-3.64 3.64-1.052-1.053zm4.102 25.817L9.06 34.41l1.63-1.63.896.896a.949.949 0 0 0 1.351 0 .955.955 0 0 0 0-1.35l-.89-.904 1.61-1.61 2.01 2.01c.422.422.999.354 1.352 0a.955.955 0 0 0 0-1.35l-2.01-2.01 1.61-1.61.896.896c.373.374 1.012.34 1.351 0a.955.955 0 0 0 0-1.35l-.896-.897.598-.598 4.468 4.462-9.514 9.506zm-1.698-23.413l3.64-3.64L36.429 32.78l-3.64 3.64-20.964-20.962zm22.744 21.899l2.804-2.805 1.406 4.204-4.21-1.4z"/>
    <defs>
        <linearGradient id="a" x1="-9.455" x2="52.145" y1="99.558" y2="95.879" gradientUnits="userSpaceOnUse">
            <stop offset=".131" stop-color="#2ED3F0"/>
            <stop offset="1" stop-color="#33DB96"/>
        </linearGradient>
    </defs>
</svg>
