<svg xmlns="http://www.w3.org/2000/svg" width="48" height="48" fill="none" viewBox="0 0 48 48">
    <path fill="url(#a)" d="M18.015 6.34c0-.306-.124-.603-.339-.826A8.57 8.57 0 0 0 11.591 3a8.53 8.53 0 0 0-5.193 1.753l-.322-.323a1.173 1.173 0 0 0-1.654 0 1.173 1.173 0 0 0 0 1.654l.323.322A8.534 8.534 0 0 0 3 11.591c0 2.298.893 4.448 2.522 6.077.231.231.529.339.827.339.297 0 .595-.116.826-.34L17.676 7.176c.215-.223.339-.52.339-.835zm-11.6 8.773a6.237 6.237 0 0 1-1.083-3.522c0-1.67.653-3.241 1.835-4.424A6.222 6.222 0 0 1 11.6 5.332c1.273 0 2.497.38 3.522 1.083l-8.706 8.698z"/>
    <path fill="url(#b)" d="M43.25 6.406l.322-.322a1.173 1.173 0 0 0 0-1.654 1.173 1.173 0 0 0-1.653 0l-.323.323A8.507 8.507 0 0 0 36.412 3a8.536 8.536 0 0 0-6.077 2.514 1.136 1.136 0 0 0-.339.826c0 .306.124.604.34.827l10.5 10.493c.231.231.529.338.827.338.297 0 .595-.115.826-.338a8.536 8.536 0 0 0 2.514-6.078c0-1.893-.62-3.696-1.753-5.176zm-1.662 8.707l-8.706-8.698a6.237 6.237 0 0 1 3.522-1.083 6.25 6.25 0 0 1 4.432 1.835 6.218 6.218 0 0 1 1.835 4.424c0 1.273-.38 2.488-1.083 3.522z"/>
    <path fill="url(#c)" d="M24.001 16.8c-.645 0-1.166.52-1.166 1.166v7.573h-4.192c-.645 0-1.166.521-1.166 1.166 0 .645.521 1.166 1.166 1.166h5.358c.645 0 1.166-.52 1.166-1.166v-8.74c0-.644-.52-1.165-1.166-1.165z"/>
    <path fill="url(#d)" d="M24 9.878c-9.268 0-16.817 7.54-16.817 16.801 0 5.747 2.91 10.832 7.326 13.866l-1.952 2.62a1.165 1.165 0 0 0 .24 1.638c.397.298 1.265.207 1.629-.24l2.108-2.828a16.729 16.729 0 0 0 7.458 1.753c2.671 0 5.201-.628 7.45-1.744l2.125 2.844c.364.447 1.232.538 1.629.24.52-.38.62-1.116.24-1.637l-1.968-2.638c4.431-3.026 7.342-8.12 7.342-13.874.008-9.26-7.54-16.8-16.81-16.8zm13.66 18h.769a14.443 14.443 0 0 1-3.423 8.202l-.53-.537a1.173 1.173 0 0 0-1.653 0 1.173 1.173 0 0 0 0 1.653l.529.53a14.427 14.427 0 0 1-8.186 3.381v-.769a1.164 1.164 0 1 0-2.332 0v.77a14.439 14.439 0 0 1-8.201-3.4l.545-.545a1.173 1.173 0 0 0 0-1.653 1.173 1.173 0 0 0-1.653 0l-.546.545a14.32 14.32 0 0 1-3.406-8.185h.769c.644 0 1.165-.521 1.165-1.166 0-.645-.52-1.166-1.165-1.166h-.778a14.385 14.385 0 0 1 3.399-8.21l.537.537c.455.455 1.19.455 1.654 0a1.173 1.173 0 0 0 0-1.653l-.538-.538a14.393 14.393 0 0 1 8.21-3.406v.769c0 .644.521 1.165 1.166 1.165.645 0 1.166-.52 1.166-1.165v-.77a14.438 14.438 0 0 1 8.194 3.39l-.546.546a1.173 1.173 0 0 0 0 1.654c.455.455 1.19.455 1.654 0l.546-.546a14.395 14.395 0 0 1 3.414 8.227h-.769c-.645 0-1.165.521-1.165 1.166.008.645.529 1.174 1.174 1.174z"/>
    <defs>
        <linearGradient id="a" x1="-4.053" x2="22.756" y1="43.369" y2="41.767" gradientUnits="userSpaceOnUse">
            <stop offset=".131" stop-color="#2ED3F0"/>
            <stop offset="1" stop-color="#33DB96"/>
        </linearGradient>
        <linearGradient id="b" x1="22.948" x2="49.742" y1="43.347" y2="41.746" gradientUnits="userSpaceOnUse">
            <stop offset=".131" stop-color="#2ED3F0"/>
            <stop offset="1" stop-color="#33DB96"/>
        </linearGradient>
        <linearGradient id="c" x1="13.866" x2="27.62" y1="46.582" y2="46.012" gradientUnits="userSpaceOnUse">
            <stop offset=".131" stop-color="#2ED3F0"/>
            <stop offset="1" stop-color="#33DB96"/>
        </linearGradient>
        <linearGradient id="d" x1="-8.611" x2="51.446" y1="104.361" y2="100.927" gradientUnits="userSpaceOnUse">
            <stop offset=".131" stop-color="#2ED3F0"/>
            <stop offset="1" stop-color="#33DB96"/>
        </linearGradient>
    </defs>
</svg>
