<svg xmlns="http://www.w3.org/2000/svg" width="48" height="48" fill="none" viewBox="0 0 48 48">
    <path fill="url(#a)" d="M18.146 8.751c-.864-.892-2.053-1.328-3.355-1.24-2.225.157-4.15 2.078-4.158 4.28 0 2.262 1.987 3.42 3.268 3.318 1.548-.13 2.85-1.438 2.963-3.026a.935.935 0 0 0-.844-1.001.926.926 0 0 0-.976.865c-.047.654-.625 1.302-1.269 1.295-.83-.014-1.328-.798-1.315-1.39.027-1.227 1.189-2.324 2.458-2.474 1.8-.211 2.716 1.465 2.61 2.678-.2 2.27-2.099 4.252-4.317 4.409-1.342.095-2.564-.348-3.428-1.24-.863-.893-1.288-2.133-1.189-3.51a.935.935 0 0 0-.843-1.001.934.934 0 0 0-.983.872c-.133 1.921.478 3.68 1.72 4.96.106.116 11.776 12.027 11.776 12.027-.717.061-1.434.245-1.966.681-.391.32-.498.947-.14 1.315.639.655 1.123.273 1.283.143.332-.272 1.09-.326 1.84-.272 0 .375-.107.79-.432 1.179a.955.955 0 0 0 .086 1.322c.18.163.711.504 1.289-.089.438-.45.644-.988.77-1.492l7.114 7.263c1.886 1.936 5.6 3.012 8.535 0 2.783-2.855 2.145-6.568.013-8.755-.013-.007-20.324-20.926-20.51-21.117zm19.208 22.432c1.813 1.86 1.515 4.551-.006 6.112a4.16 4.16 0 0 1-5.965 0l-7.266-7.42 7.027-5.07 6.21 6.378zm-7.518-7.727l-6.131 4.429 4.968-5.622 1.163 1.193zm-8.157 3.931l-8.854-9.049c3.687.423 6.25-3.113 6.47-5.71l8.09 8.307-5.706 6.452z"/>
    <defs>
        <linearGradient id="a" x1="-9.102" x2="51.148" y1="96.273" y2="92.593" gradientUnits="userSpaceOnUse">
            <stop offset=".131" stop-color="#2ED3F0"/>
            <stop offset="1" stop-color="#33DB96"/>
        </linearGradient>
    </defs>
</svg>
